<svg width="23" height="25" viewBox="0 0 23 25" fill="none" xmlns="http://www.w3.org/2000/svg">
<path fill-rule="evenodd" clip-rule="evenodd" d="M0 0L2.00573 22.5009L11.0062 25L20.0316 22.4974L22.0395 0H0ZM18.3127 21.0648L11.0197 23.0871V20.2233L11.007 20.2269L5.35521 18.6576L4.96865 14.3245H7.73837L7.9348 16.5255L11.0076 17.3554L11.0102 17.3547V20.2255L16.6665 18.6576L17.3564 10.9261L17.4237 10.185H11.0197V7.35913H17.6748L17.9218 4.59946H11.0197V1.83978H20.0285L18.3127 21.0648ZM11.0102 4.59946H4.10119L4.84537 12.9447H11.0102V10.185H7.36871L7.11656 7.35913H11.0102V4.59946ZM14.0875 16.5237L11.0197 17.3519V12.9447H14.4077L14.0875 16.5237Z" fill="url(#paint0_linear_197_117)"/>
<defs>
<linearGradient id="paint0_linear_197_117" x1="17.6316" y1="3.39474" x2="1.83874" y2="19.344" gradientUnits="userSpaceOnUse">
<stop stop-color="#9747FF"/>
<stop offset="1" stop-color="#FA00FF"/>
</linearGradient>
</defs>
</svg>
