<svg width="25" height="24" viewBox="0 0 25 24" fill="none" xmlns="http://www.w3.org/2000/svg">
<path d="M20.555 8.11438C20.2957 8.02571 20.0269 7.94182 19.7502 7.86248C19.7957 7.67812 19.8375 7.49615 19.8746 7.31728C20.4838 4.38007 20.0855 2.01383 18.7253 1.23476C17.4211 0.487741 15.2882 1.26663 13.1341 3.12868C12.9269 3.30773 12.7192 3.49731 12.5116 3.69598C12.3732 3.56453 12.2351 3.4375 12.0973 3.316C9.83972 1.32497 7.57682 0.485929 6.21803 1.26725C4.91508 2.01644 4.52922 4.24092 5.07759 7.02454C5.13054 7.29341 5.19244 7.56798 5.26244 7.84714C4.94218 7.93744 4.63299 8.03371 4.33716 8.13612C1.69036 9.05269 0 10.4892 0 11.9792C0 13.5181 1.81461 15.0617 4.57145 15.9976C4.78901 16.0714 5.01476 16.1413 5.2474 16.2076C5.17188 16.5095 5.1062 16.8054 5.05107 17.094C4.5282 19.8293 4.93653 22.0012 6.236 22.7457C7.57825 23.5145 9.83091 22.7242 12.0244 20.8197C12.1978 20.6692 12.3718 20.5096 12.5461 20.3422C12.772 20.5583 12.9976 20.7628 13.222 20.9546C15.3466 22.7707 17.4451 23.504 18.7434 22.7575C20.0843 21.9864 20.5201 19.6533 19.9543 16.8146C19.9111 16.5978 19.8608 16.3763 19.8044 16.1509C19.9625 16.1044 20.1179 16.0565 20.2693 16.0066C23.1353 15.0634 25 13.5387 25 11.9792C25 10.4838 23.2551 9.03762 20.555 8.11438ZM19.9334 14.9997C19.7967 15.0446 19.6564 15.0881 19.5135 15.1302C19.1971 14.1353 18.7701 13.0774 18.2475 11.9844C18.7462 10.9174 19.1567 9.873 19.4642 8.88456C19.72 8.95806 19.9682 9.03559 20.2074 9.1174C22.5208 9.90845 23.932 11.078 23.932 11.9792C23.932 12.9391 22.408 14.1853 19.9334 14.9997ZM18.9066 17.0206C19.1568 18.2758 19.1925 19.4107 19.0268 20.2979C18.8779 21.0951 18.5785 21.6266 18.2082 21.8394C17.4204 22.2924 15.7355 21.7036 13.9185 20.1505C13.7102 19.9725 13.5004 19.7824 13.2899 19.5812C13.9943 18.8159 14.6983 17.9263 15.3854 16.9383C16.594 16.8318 17.7358 16.6577 18.7713 16.4199C18.8223 16.6243 18.8676 16.8247 18.9066 17.0206ZM8.52306 21.7612C7.75331 22.0312 7.14024 22.0389 6.76964 21.8267C5.98107 21.3749 5.65324 19.631 6.10041 17.2918C6.15163 17.0239 6.2126 16.7487 6.28286 16.4674C7.30698 16.6924 8.44043 16.8542 9.65189 16.9518C10.3436 17.9186 11.068 18.8072 11.798 19.5853C11.6385 19.7382 11.4796 19.8838 11.3216 20.021C10.3517 20.8631 9.37968 21.4606 8.52306 21.7612ZM4.91686 14.9938C3.69783 14.58 2.69112 14.0421 2.00106 13.4552C1.381 12.9277 1.06795 12.4041 1.06795 11.9792C1.06795 11.075 2.42514 9.92171 4.68871 9.13782C4.96336 9.0427 5.25087 8.95307 5.54924 8.86887C5.86207 9.87963 6.27245 10.9364 6.76769 12.005C6.26604 13.0895 5.84984 14.1631 5.53393 15.1857C5.32123 15.125 5.11515 15.0611 4.91686 14.9938ZM6.12569 6.82082C5.65586 4.43589 5.96789 2.63678 6.75309 2.18532C7.58946 1.70439 9.43891 2.3901 11.3882 4.10925C11.5128 4.21913 11.6379 4.33414 11.7633 4.45313C11.0369 5.22782 10.3192 6.10978 9.6336 7.07086C8.45783 7.17911 7.33234 7.35299 6.29755 7.58583C6.23249 7.32589 6.17486 7.07051 6.12569 6.82082ZM16.9096 9.4657C16.6622 9.04129 16.4082 8.62692 16.1493 8.22386C16.947 8.32402 17.7112 8.45697 18.4289 8.61967C18.2134 9.30556 17.9449 10.0227 17.6288 10.7579C17.402 10.3302 17.1621 9.89908 16.9096 9.4657ZM12.5119 5.21124C13.0045 5.74133 13.4979 6.33317 13.9831 6.9753C13.4941 6.95236 12.9991 6.94043 12.5 6.94043C12.0056 6.94043 11.5142 6.9521 11.0283 6.97464C11.514 6.33847 12.0116 5.74743 12.5119 5.21124ZM8.08612 9.47303C7.83902 9.89863 7.60361 10.3275 7.3804 10.7571C7.06939 10.0245 6.80333 9.30406 6.58599 8.60844C7.29928 8.4499 8.05991 8.32026 8.8525 8.222C8.58995 8.62877 8.3339 9.0462 8.08612 9.47295V9.47303ZM8.87532 15.8121C8.05644 15.7213 7.28437 15.5984 6.57127 15.4442C6.79207 14.7362 7.06401 14.0004 7.3816 13.252C7.60539 13.6813 7.84173 14.1103 8.09035 14.5368H8.09039C8.34364 14.9714 8.60601 15.397 8.87532 15.8121ZM12.5415 18.822C12.0353 18.2795 11.5304 17.6794 11.0373 17.034C11.516 17.0526 12.004 17.0622 12.5 17.0622C13.0096 17.0622 13.5133 17.0508 14.0091 17.0289C13.5223 17.6859 13.0307 18.2869 12.5415 18.822ZM17.639 13.2138C17.9731 13.9703 18.2548 14.7023 18.4784 15.3982C17.7536 15.5625 16.971 15.6948 16.1464 15.7931C16.4059 15.3846 16.6621 14.9631 16.9138 14.5295C17.1685 14.0909 17.4103 13.6516 17.639 13.2138ZM15.9887 13.9996C15.5979 14.6726 15.1967 15.3151 14.7894 15.9216C14.0476 15.9743 13.2811 16.0014 12.5 16.0014C11.722 16.0014 10.9653 15.9774 10.2365 15.9304C9.8128 15.316 9.40287 14.6716 9.01456 14.0054H9.01465C8.62737 13.341 8.27093 12.6709 7.94795 12.0047C8.27084 11.3369 8.62635 10.6661 9.0114 10.0029L9.01132 10.003C9.39739 9.338 9.80372 8.69675 10.2235 8.08618C10.967 8.03035 11.7294 8.00122 12.5 8.00122H12.5C13.274 8.00122 14.0374 8.03057 14.7807 8.08688C15.1941 8.693 15.5976 9.33217 15.9852 9.99724C16.3772 10.6698 16.7373 11.3361 17.063 11.9896C16.7383 12.6543 16.379 13.3273 15.9887 13.9996ZM18.1919 2.15376C19.029 2.63329 19.3546 4.56721 18.8286 7.10317C18.7951 7.26499 18.7573 7.42981 18.7162 7.59684C17.679 7.35913 16.5528 7.18225 15.3736 7.07236C14.6866 6.10072 13.9748 5.21739 13.2602 4.45264C13.4523 4.26908 13.6442 4.09405 13.8352 3.92887C15.6809 2.33348 17.4059 1.70359 18.1919 2.15376ZM12.5 9.76184C13.7329 9.76184 14.7324 10.7546 14.7324 11.9792C14.7324 13.2038 13.7329 14.1966 12.5 14.1966C11.2671 14.1966 10.2676 13.2038 10.2676 11.9792C10.2676 10.7546 11.2671 9.76184 12.5 9.76184Z" fill="url(#paint0_linear_46_625)"/>
<defs>
<linearGradient id="paint0_linear_46_625" x1="20" y1="3.95361" x2="6.5" y2="21.4536" gradientUnits="userSpaceOnUse">
<stop stop-color="#9747FF"/>
<stop offset="1" stop-color="#FA00FF"/>
</linearGradient>
</defs>
</svg>
