<svg width="21" height="25" viewBox="0 0 21 25" fill="none" xmlns="http://www.w3.org/2000/svg">
<path d="M6.20938 21.0017C4.97469 19.8879 4.61428 17.5478 5.12868 15.8524C6.0206 16.9214 7.25643 17.2599 8.53651 17.4511C10.5127 17.746 12.4534 17.6357 14.2892 16.7444C14.4992 16.6423 14.6933 16.5066 14.9228 16.3692C15.095 16.8624 15.1398 17.3602 15.0797 17.8669C14.9334 19.101 14.3111 20.0543 13.3212 20.7769C12.9254 21.066 12.5065 21.3243 12.0977 21.5969C10.8418 22.4345 10.502 23.4167 10.974 24.8455C10.9852 24.8803 10.9952 24.9151 11.0206 25C10.3794 24.7169 9.91097 24.3045 9.55409 23.7624C9.17715 23.1902 8.9978 22.5572 8.98838 21.8724C8.98366 21.5391 8.98366 21.2028 8.93823 20.8743C8.82735 20.0732 8.44626 19.7145 7.72837 19.6939C6.99158 19.6726 6.40876 20.1221 6.2542 20.83C6.24241 20.8843 6.2253 20.938 6.2082 21.0011L6.20938 21.0017Z" fill="url(#paint0_linear_200_134)"/>
<path d="M0 16.3715C0 16.3715 3.376 14.731 6.76143 14.731L9.31394 6.8511C9.40947 6.47002 9.68852 6.21106 10.0035 6.21106C10.3185 6.21106 10.5975 6.47002 10.6931 6.8511L13.2456 14.731C17.2552 14.731 20.007 16.3715 20.007 16.3715C20.007 16.3715 14.2726 0.788694 14.2614 0.757432C14.0968 0.296719 13.819 0 13.4444 0H6.56323C6.18864 0 5.92201 0.296719 5.7462 0.757432C5.73381 0.788105 0 16.3715 0 16.3715Z" fill="url(#paint1_linear_200_134)"/>
<defs>
<linearGradient id="paint0_linear_200_134" x1="16.0056" y1="3.39474" x2="0.271448" y2="17.8194" gradientUnits="userSpaceOnUse">
<stop stop-color="#9747FF"/>
<stop offset="1" stop-color="#FA00FF"/>
</linearGradient>
<linearGradient id="paint1_linear_200_134" x1="16.0056" y1="3.39474" x2="0.271448" y2="17.8194" gradientUnits="userSpaceOnUse">
<stop stop-color="#9747FF"/>
<stop offset="1" stop-color="#FA00FF"/>
</linearGradient>
</defs>
</svg>
