<svg width="30" height="18" viewBox="0 0 30 18" fill="none" xmlns="http://www.w3.org/2000/svg">
<path d="M15 0C11 0 8.5 2 7.5 6C9 4 10.75 3.25 12.75 3.75C13.8911 4.03528 14.7067 4.86311 15.6095 5.7795C17.0802 7.27228 18.7823 9 22.5 9C26.5 9 29 7 30 3C28.5 5 26.75 5.75 24.75 5.25C23.6089 4.96472 22.7933 4.13689 21.8905 3.2205C20.4198 1.72772 18.7177 0 15 0ZM7.5 9C3.5 9 1 11 0 15C1.5 13 3.25 12.25 5.25 12.75C6.39111 13.0353 7.20672 13.8631 8.1095 14.7795C9.58017 16.2723 11.2823 18 15 18C19 18 21.5 16 22.5 12C21 14 19.25 14.75 17.25 14.25C16.1089 13.9647 15.2933 13.1369 14.3905 12.2205C12.9198 10.7277 11.2177 9 7.5 9Z" fill="url(#paint0_linear_46_639)"/>
<defs>
<linearGradient id="paint0_linear_46_639" x1="24" y1="2.44421" x2="14.6525" y2="20.2912" gradientUnits="userSpaceOnUse">
<stop stop-color="#9747FF"/>
<stop offset="1" stop-color="#FA00FF"/>
</linearGradient>
</defs>
</svg>
